<svg t="1731134895374" class="icon" viewBox="0 0 1024 1024" version="1.1" xmlns="http://www.w3.org/2000/svg" p-id="963" width="16" height="16"><path d="M779.1104 144.9472h-56.32v-29.696a30.72 30.72 0 1 0-61.44 0v29.696H380.672v-29.696a30.72 30.72 0 0 0-61.44 0v29.696H253.952A161.8944 161.8944 0 0 0 92.16 306.688v468.3776A161.8944 161.8944 0 0 0 253.952 936.96h525.1584a161.8944 161.8944 0 0 0 161.7408-161.7408V306.688a161.8944 161.8944 0 0 0-161.7408-161.7408z m-525.1584 61.44h65.28v39.0656a30.72 30.72 0 0 0 61.44 0v-39.0656h280.7808v39.0656a30.72 30.72 0 0 0 61.44 0v-39.0656h56.32a100.4032 100.4032 0 0 1 100.1984 100.3008v57.856H153.6V306.688a100.4032 100.4032 0 0 1 100.352-100.3008zM779.1104 875.52H253.952A100.4032 100.4032 0 0 1 153.6 775.0656V425.984h725.8112v349.0816A100.4032 100.4032 0 0 1 779.1104 875.52z" fill="#989898" p-id="964"></path><path d="M632.576 515.7376l-146.5856 148.7872-76.8-76.8a35.84 35.84 0 0 0-50.688 50.688l102.4 102.4a35.84 35.84 0 0 0 25.6 10.24 35.84 35.84 0 0 0 25.6-10.7008l171.9808-174.5408a35.84 35.84 0 1 0-51.2-50.2784z" fill="#989898" p-id="965"></path></svg>